<svg xmlns="http://www.w3.org/2000/svg" viewBox="0 0 128 128"><defs><radialGradient id="g"><stop stop-color="#fff0b8"/><stop offset="1" stop-color="#e27142"/></radialGradient><filter id="s"><feDropShadow dy="4" stdDeviation="3" flood-opacity=".35"/></filter></defs><g filter="url(#s)"><circle cx="64" cy="64" r="56" fill="#254a49" stroke="#e8c46e" stroke-width="5"/><path d="M31 56 22 31l25 13c9-8 27-8 36 0l25-13-9 25c8 10 8 31-1 42-10 12-57 12-68 0-9-11-8-32 1-42z" fill="url(#g)" stroke="#8c472e" stroke-width="4"/><path d="M47 48 38 37l14 6m29 5 9-11-14 6" fill="#fff1c8"/><ellipse cx="50" cy="72" rx="5" ry="7" fill="#483229"/><ellipse cx="78" cy="72" rx="5" ry="7" fill="#483229"/><path d="M58 84q6 5 12 0" fill="none" stroke="#b95e52" stroke-width="3" stroke-linecap="round"/><path d="M56 58q8-18 16 0" fill="#ffd85e"/></g></svg>